<mxfile host="app.diagrams.net" modified="2024-05-21T22:36:35.153Z" agent="Mozilla/5.0 (Windows NT 10.0; Win64; x64) AppleWebKit/537.36 (KHTML, like Gecko) Chrome/125.0.0.0 Safari/537.36" etag="spVExZgDEI0j0dlOByYS" version="24.4.4" type="device">
  <diagram name="PÃ¡gina-1" id="TlIONzD3HUtE95aG6Fwf">
    <mxGraphModel dx="1600" dy="869" grid="1" gridSize="10" guides="1" tooltips="1" connect="1" arrows="1" fold="1" page="1" pageScale="1" pageWidth="827" pageHeight="1169" math="0" shadow="0">
      <root>
        <mxCell id="0" />
        <mxCell id="1" parent="0" />
        <mxCell id="J9oQebN9dJhHWZxUHBdl-43" value="" style="rounded=0;whiteSpace=wrap;html=1;fillColor=none;strokeColor=#666666;" vertex="1" parent="1">
          <mxGeometry x="122.05" y="690" width="692" height="60" as="geometry" />
        </mxCell>
        <mxCell id="J9oQebN9dJhHWZxUHBdl-32" value="" style="whiteSpace=wrap;html=1;fillColor=none;strokeColor=#808080;" vertex="1" parent="1">
          <mxGeometry x="122.05" y="130" width="692" height="550" as="geometry" />
        </mxCell>
        <mxCell id="J9oQebN9dJhHWZxUHBdl-12" style="edgeStyle=orthogonalEdgeStyle;rounded=0;orthogonalLoop=1;jettySize=auto;html=1;" edge="1" parent="1" source="J9oQebN9dJhHWZxUHBdl-7" target="J9oQebN9dJhHWZxUHBdl-11">
          <mxGeometry relative="1" as="geometry" />
        </mxCell>
        <mxCell id="J9oQebN9dJhHWZxUHBdl-7" value="" style="sketch=0;points=[[0,0,0],[0.25,0,0],[0.5,0,0],[0.75,0,0],[1,0,0],[0,1,0],[0.25,1,0],[0.5,1,0],[0.75,1,0],[1,1,0],[0,0.25,0],[0,0.5,0],[0,0.75,0],[1,0.25,0],[1,0.5,0],[1,0.75,0]];outlineConnect=0;fontColor=#232F3E;fillColor=#8C4FFF;strokeColor=#ffffff;dashed=0;verticalLabelPosition=bottom;verticalAlign=top;align=center;html=1;fontSize=12;fontStyle=0;aspect=fixed;shape=mxgraph.aws4.resourceIcon;resIcon=mxgraph.aws4.api_gateway;fontFamily=Helvetica;" vertex="1" parent="1">
          <mxGeometry x="273.93" y="210" width="70" height="70" as="geometry" />
        </mxCell>
        <mxCell id="J9oQebN9dJhHWZxUHBdl-9" value="" style="verticalLabelPosition=bottom;aspect=fixed;html=1;shape=mxgraph.salesforce.web;" vertex="1" parent="1">
          <mxGeometry x="22.05" y="212.65" width="81.9" height="64.7" as="geometry" />
        </mxCell>
        <mxCell id="J9oQebN9dJhHWZxUHBdl-25" style="edgeStyle=orthogonalEdgeStyle;rounded=0;orthogonalLoop=1;jettySize=auto;html=1;" edge="1" parent="1" source="J9oQebN9dJhHWZxUHBdl-11" target="J9oQebN9dJhHWZxUHBdl-13">
          <mxGeometry relative="1" as="geometry">
            <Array as="points">
              <mxPoint x="609.05" y="320" />
              <mxPoint x="459.05" y="320" />
            </Array>
          </mxGeometry>
        </mxCell>
        <mxCell id="J9oQebN9dJhHWZxUHBdl-11" value="" style="sketch=0;points=[[0,0,0],[0.25,0,0],[0.5,0,0],[0.75,0,0],[1,0,0],[0,1,0],[0.25,1,0],[0.5,1,0],[0.75,1,0],[1,1,0],[0,0.25,0],[0,0.5,0],[0,0.75,0],[1,0.25,0],[1,0.5,0],[1,0.75,0]];outlineConnect=0;fontColor=#232F3E;fillColor=#8C4FFF;strokeColor=#ffffff;dashed=0;verticalLabelPosition=bottom;verticalAlign=top;align=center;html=1;fontSize=12;fontStyle=0;aspect=fixed;shape=mxgraph.aws4.resourceIcon;resIcon=mxgraph.aws4.glue;" vertex="1" parent="1">
          <mxGeometry x="572.05" y="210" width="70" height="70" as="geometry" />
        </mxCell>
        <mxCell id="J9oQebN9dJhHWZxUHBdl-59" style="edgeStyle=orthogonalEdgeStyle;rounded=0;orthogonalLoop=1;jettySize=auto;html=1;" edge="1" parent="1" source="J9oQebN9dJhHWZxUHBdl-13" target="J9oQebN9dJhHWZxUHBdl-17">
          <mxGeometry relative="1" as="geometry" />
        </mxCell>
        <mxCell id="J9oQebN9dJhHWZxUHBdl-13" value="" style="sketch=0;points=[[0,0,0],[0.25,0,0],[0.5,0,0],[0.75,0,0],[1,0,0],[0,1,0],[0.25,1,0],[0.5,1,0],[0.75,1,0],[1,1,0],[0,0.25,0],[0,0.5,0],[0,0.75,0],[1,0.25,0],[1,0.5,0],[1,0.75,0]];outlineConnect=0;fontColor=#232F3E;fillColor=#7AA116;strokeColor=#ffffff;dashed=0;verticalLabelPosition=bottom;verticalAlign=top;align=center;html=1;fontSize=12;fontStyle=0;aspect=fixed;shape=mxgraph.aws4.resourceIcon;resIcon=mxgraph.aws4.s3;" vertex="1" parent="1">
          <mxGeometry x="422.05" y="348.1" width="70" height="70" as="geometry" />
        </mxCell>
        <mxCell id="J9oQebN9dJhHWZxUHBdl-21" style="edgeStyle=orthogonalEdgeStyle;rounded=0;orthogonalLoop=1;jettySize=auto;html=1;" edge="1" parent="1" source="J9oQebN9dJhHWZxUHBdl-17" target="J9oQebN9dJhHWZxUHBdl-20">
          <mxGeometry relative="1" as="geometry" />
        </mxCell>
        <mxCell id="J9oQebN9dJhHWZxUHBdl-60" style="edgeStyle=orthogonalEdgeStyle;rounded=0;orthogonalLoop=1;jettySize=auto;html=1;entryX=0.5;entryY=1;entryDx=0;entryDy=0;" edge="1" parent="1" source="J9oQebN9dJhHWZxUHBdl-17" target="J9oQebN9dJhHWZxUHBdl-48">
          <mxGeometry relative="1" as="geometry" />
        </mxCell>
        <mxCell id="J9oQebN9dJhHWZxUHBdl-17" value="" style="sketch=0;points=[[0,0,0],[0.25,0,0],[0.5,0,0],[0.75,0,0],[1,0,0],[0,1,0],[0.25,1,0],[0.5,1,0],[0.75,1,0],[1,1,0],[0,0.25,0],[0,0.5,0],[0,0.75,0],[1,0.25,0],[1,0.5,0],[1,0.75,0]];outlineConnect=0;fontColor=#232F3E;fillColor=#01A88D;strokeColor=#ffffff;dashed=0;verticalLabelPosition=bottom;verticalAlign=top;align=center;html=1;fontSize=12;fontStyle=0;aspect=fixed;shape=mxgraph.aws4.resourceIcon;resIcon=mxgraph.aws4.machine_learning;" vertex="1" parent="1">
          <mxGeometry x="570.1499999999999" y="448.1" width="70" height="70" as="geometry" />
        </mxCell>
        <mxCell id="J9oQebN9dJhHWZxUHBdl-20" value="" style="sketch=0;points=[[0,0,0],[0.25,0,0],[0.5,0,0],[0.75,0,0],[1,0,0],[0,1,0],[0.25,1,0],[0.5,1,0],[0.75,1,0],[1,1,0],[0,0.25,0],[0,0.5,0],[0,0.75,0],[1,0.25,0],[1,0.5,0],[1,0.75,0]];outlineConnect=0;fontColor=#232F3E;fillColor=#8C4FFF;strokeColor=#ffffff;dashed=0;verticalLabelPosition=bottom;verticalAlign=top;align=center;html=1;fontSize=12;fontStyle=0;aspect=fixed;shape=mxgraph.aws4.resourceIcon;resIcon=mxgraph.aws4.api_gateway;" vertex="1" parent="1">
          <mxGeometry x="702.0499999999998" y="448.1" width="70" height="70" as="geometry" />
        </mxCell>
        <mxCell id="J9oQebN9dJhHWZxUHBdl-28" value="" style="sketch=0;points=[[0,0,0],[0.25,0,0],[0.5,0,0],[0.75,0,0],[1,0,0],[0,1,0],[0.25,1,0],[0.5,1,0],[0.75,1,0],[1,1,0],[0,0.25,0],[0,0.5,0],[0,0.75,0],[1,0.25,0],[1,0.5,0],[1,0.75,0]];outlineConnect=0;fontColor=#232F3E;fillColor=#8C4FFF;strokeColor=#ffffff;dashed=0;verticalLabelPosition=bottom;verticalAlign=top;align=center;html=1;fontSize=12;fontStyle=0;aspect=fixed;shape=mxgraph.aws4.resourceIcon;resIcon=mxgraph.aws4.quicksight;" vertex="1" parent="1">
          <mxGeometry x="572.0499999999998" y="590" width="70" height="70" as="geometry" />
        </mxCell>
        <mxCell id="J9oQebN9dJhHWZxUHBdl-63" value="" style="edgeStyle=orthogonalEdgeStyle;rounded=0;orthogonalLoop=1;jettySize=auto;html=1;" edge="1" parent="1" source="J9oQebN9dJhHWZxUHBdl-29" target="J9oQebN9dJhHWZxUHBdl-7">
          <mxGeometry relative="1" as="geometry" />
        </mxCell>
        <mxCell id="J9oQebN9dJhHWZxUHBdl-29" value="" style="sketch=0;points=[[0,0,0],[0.25,0,0],[0.5,0,0],[0.75,0,0],[1,0,0],[0,1,0],[0.25,1,0],[0.5,1,0],[0.75,1,0],[1,1,0],[0,0.25,0],[0,0.5,0],[0,0.75,0],[1,0.25,0],[1,0.5,0],[1,0.75,0]];outlineConnect=0;fontColor=#232F3E;fillColor=#DD344C;strokeColor=#ffffff;dashed=0;verticalLabelPosition=bottom;verticalAlign=top;align=center;html=1;fontSize=12;fontStyle=0;aspect=fixed;shape=mxgraph.aws4.resourceIcon;resIcon=mxgraph.aws4.cognito;" vertex="1" parent="1">
          <mxGeometry x="273.93" y="357.35" width="70" height="70" as="geometry" />
        </mxCell>
        <mxCell id="J9oQebN9dJhHWZxUHBdl-33" value="" style="outlineConnect=0;dashed=0;verticalLabelPosition=bottom;verticalAlign=top;align=center;html=1;shape=mxgraph.aws3.cloud_2;fillColor=#808080;gradientColor=none;fontColor=#808080;" vertex="1" parent="1">
          <mxGeometry x="122.05" y="130" width="50" height="50" as="geometry" />
        </mxCell>
        <mxCell id="J9oQebN9dJhHWZxUHBdl-34" value="AWS Cloud" style="text;strokeColor=none;align=center;fillColor=none;html=1;verticalAlign=middle;whiteSpace=wrap;rounded=0;fontFamily=Helvetica;fontColor=#808080;" vertex="1" parent="1">
          <mxGeometry x="162.05" y="140" width="100" height="30" as="geometry" />
        </mxCell>
        <mxCell id="J9oQebN9dJhHWZxUHBdl-36" value="&lt;font color=&quot;#1a1a1a&quot;&gt;Amazon Cognito&lt;/font&gt;" style="text;strokeColor=none;align=center;fillColor=none;html=1;verticalAlign=middle;whiteSpace=wrap;rounded=0;fontFamily=Helvetica;fontColor=#808080;" vertex="1" parent="1">
          <mxGeometry x="258.93" y="427.35" width="100" height="30" as="geometry" />
        </mxCell>
        <mxCell id="J9oQebN9dJhHWZxUHBdl-37" value="" style="ellipse;whiteSpace=wrap;html=1;strokeColor=#808080;" vertex="1" parent="1">
          <mxGeometry x="243.93" y="330" width="30" height="30" as="geometry" />
        </mxCell>
        <mxCell id="J9oQebN9dJhHWZxUHBdl-38" value="&lt;font color=&quot;#1a1a1a&quot;&gt;1&lt;/font&gt;" style="text;strokeColor=none;align=center;fillColor=none;html=1;verticalAlign=middle;whiteSpace=wrap;rounded=0;fontFamily=Helvetica;fontColor=#808080;" vertex="1" parent="1">
          <mxGeometry x="248.93" y="335" width="20" height="20" as="geometry" />
        </mxCell>
        <mxCell id="J9oQebN9dJhHWZxUHBdl-39" value="" style="ellipse;whiteSpace=wrap;html=1;" vertex="1" parent="1">
          <mxGeometry x="137.05" y="700" width="20" height="20" as="geometry" />
        </mxCell>
        <mxCell id="J9oQebN9dJhHWZxUHBdl-40" value="&lt;font color=&quot;#1a1a1a&quot;&gt;1&lt;/font&gt;" style="text;strokeColor=none;align=center;fillColor=none;html=1;verticalAlign=middle;whiteSpace=wrap;rounded=0;fontFamily=Helvetica;fontColor=#808080;" vertex="1" parent="1">
          <mxGeometry x="139.55" y="705" width="15" height="10" as="geometry" />
        </mxCell>
        <mxCell id="J9oQebN9dJhHWZxUHBdl-41" value="&lt;font color=&quot;#1a1a1a&quot;&gt;Recurso para seguranÃ§a e autenticaÃ§Ã£o JWT. EsboÃ§ado, porÃ©m nÃ£o obrigatÃ³rio.&lt;/font&gt;" style="text;strokeColor=none;align=left;fillColor=none;html=1;verticalAlign=middle;whiteSpace=wrap;rounded=0;fontFamily=Helvetica;fontColor=#808080;" vertex="1" parent="1">
          <mxGeometry x="162.05" y="702.5" width="645" height="15" as="geometry" />
        </mxCell>
        <mxCell id="J9oQebN9dJhHWZxUHBdl-46" value="&lt;font color=&quot;#1a1a1a&quot;&gt;API Gateway (vitivinicultura_api)&lt;/font&gt;" style="text;strokeColor=none;align=center;fillColor=none;html=1;verticalAlign=middle;whiteSpace=wrap;rounded=0;fontFamily=Helvetica;fontColor=#808080;" vertex="1" parent="1">
          <mxGeometry x="258.93" y="177.65" width="100" height="30" as="geometry" />
        </mxCell>
        <mxCell id="J9oQebN9dJhHWZxUHBdl-47" value="&lt;font color=&quot;#1a1a1a&quot;&gt;Glue&lt;/font&gt;&lt;div&gt;&lt;font color=&quot;#1a1a1a&quot;&gt;ETL&amp;nbsp;&lt;/font&gt;&lt;span style=&quot;color: rgb(26, 26, 26); background-color: initial;&quot;&gt;Data Prep/Ingestion&lt;/span&gt;&lt;/div&gt;" style="text;strokeColor=none;align=center;fillColor=none;html=1;verticalAlign=middle;whiteSpace=wrap;rounded=0;fontFamily=Helvetica;fontColor=#808080;" vertex="1" parent="1">
          <mxGeometry x="517.4699999999999" y="177.65" width="175.35" height="30" as="geometry" />
        </mxCell>
        <mxCell id="J9oQebN9dJhHWZxUHBdl-48" value="&lt;font color=&quot;#1a1a1a&quot;&gt;S3&lt;/font&gt;&lt;div&gt;&lt;font color=&quot;#1a1a1a&quot;&gt;Data Storage&lt;/font&gt;&lt;/div&gt;" style="text;strokeColor=none;align=center;fillColor=none;html=1;verticalAlign=middle;whiteSpace=wrap;rounded=0;fontFamily=Helvetica;fontColor=#808080;" vertex="1" parent="1">
          <mxGeometry x="407.05" y="418.1" width="100" height="30" as="geometry" />
        </mxCell>
        <mxCell id="J9oQebN9dJhHWZxUHBdl-52" value="" style="edgeStyle=orthogonalEdgeStyle;rounded=0;orthogonalLoop=1;jettySize=auto;html=1;" edge="1" parent="1" source="J9oQebN9dJhHWZxUHBdl-50" target="J9oQebN9dJhHWZxUHBdl-28">
          <mxGeometry relative="1" as="geometry" />
        </mxCell>
        <mxCell id="J9oQebN9dJhHWZxUHBdl-50" value="&lt;font color=&quot;#1a1a1a&quot;&gt;Machine Learning Model&lt;/font&gt;" style="text;strokeColor=none;align=center;fillColor=none;html=1;verticalAlign=middle;whiteSpace=wrap;rounded=0;fontFamily=Helvetica;fontColor=#808080;" vertex="1" parent="1">
          <mxGeometry x="548.5999999999999" y="518.1" width="116.9" height="30" as="geometry" />
        </mxCell>
        <mxCell id="J9oQebN9dJhHWZxUHBdl-54" value="&lt;font color=&quot;#1a1a1a&quot;&gt;web&lt;/font&gt;&lt;div&gt;&lt;font color=&quot;#1a1a1a&quot;&gt;Embrapa&lt;/font&gt;&lt;/div&gt;" style="text;strokeColor=none;align=center;fillColor=none;html=1;verticalAlign=middle;whiteSpace=wrap;rounded=0;fontFamily=Helvetica;fontColor=#808080;fontStyle=1" vertex="1" parent="1">
          <mxGeometry x="12.99999999999999" y="290" width="100" height="30" as="geometry" />
        </mxCell>
        <mxCell id="J9oQebN9dJhHWZxUHBdl-55" value="&lt;font color=&quot;#1a1a1a&quot;&gt;Quicksight&lt;/font&gt;&lt;div&gt;&lt;font color=&quot;#1a1a1a&quot;&gt;DataViz for clients&lt;/font&gt;&lt;/div&gt;" style="text;strokeColor=none;align=center;fillColor=none;html=1;verticalAlign=middle;whiteSpace=wrap;rounded=0;fontFamily=Helvetica;fontColor=#808080;" vertex="1" parent="1">
          <mxGeometry x="642.05" y="610" width="110" height="30" as="geometry" />
        </mxCell>
        <mxCell id="J9oQebN9dJhHWZxUHBdl-61" value="&lt;font color=&quot;#1a1a1a&quot;&gt;API Gateway&lt;/font&gt;&lt;div&gt;&lt;font color=&quot;#1a1a1a&quot;&gt;output data of ML Model&lt;/font&gt;&lt;/div&gt;" style="text;strokeColor=none;align=center;fillColor=none;html=1;verticalAlign=middle;whiteSpace=wrap;rounded=0;fontFamily=Helvetica;fontColor=#808080;" vertex="1" parent="1">
          <mxGeometry x="687.05" y="410" width="100" height="30" as="geometry" />
        </mxCell>
        <mxCell id="J9oQebN9dJhHWZxUHBdl-62" value="&lt;div&gt;&lt;font style=&quot;font-size: 25px;&quot;&gt;Projeto FIAP&lt;/font&gt;&lt;/div&gt;&lt;div&gt;&lt;font style=&quot;font-size: 25px;&quot;&gt;Vitivinicultura Embrapa&lt;/font&gt;&lt;/div&gt;&lt;font style=&quot;font-size: 20px;&quot;&gt;Arquitetura de soluÃ§Ã£o para modelo de Machine Learning&lt;/font&gt;" style="text;strokeColor=none;align=left;fillColor=none;html=1;verticalAlign=middle;whiteSpace=wrap;rounded=0;fontSize=25;" vertex="1" parent="1">
          <mxGeometry x="22.05" y="20" width="787.95" height="80" as="geometry" />
        </mxCell>
        <mxCell id="J9oQebN9dJhHWZxUHBdl-65" style="edgeStyle=orthogonalEdgeStyle;rounded=0;orthogonalLoop=1;jettySize=auto;html=1;entryX=0;entryY=0.5;entryDx=0;entryDy=0;entryPerimeter=0;" edge="1" parent="1" source="J9oQebN9dJhHWZxUHBdl-9" target="J9oQebN9dJhHWZxUHBdl-7">
          <mxGeometry relative="1" as="geometry" />
        </mxCell>
      </root>
    </mxGraphModel>
  </diagram>
</mxfile>
